<svg version="1.1" id="Layer_1" xmlns="http://www.w3.org/2000/svg" xmlns:xlink="http://www.w3.org/1999/xlink" x="0px" y="0px"
	 width="100%" viewBox="0 0 1024 1024" enable-background="new 0 0 1024 1024" xml:space="preserve">
<path fill="#ffffff" opacity="1.000000" stroke="none" 
	d="
M935.088074,588.925232 
	C943.393372,600.374695 954.164856,607.020081 968.101135,608.523315 
	C953.173523,609.927429 939.316895,607.422485 927.289856,598.207214 
	C917.027649,590.344177 912.388489,578.860413 908.132263,567.214966 
	C903.564148,554.716125 899.050110,542.197388 894.452454,529.709473 
	C893.953064,528.353210 893.667603,526.779358 891.747070,525.530762 
	C877.527466,531.841919 861.370117,532.375610 846.641785,538.306274 
	C833.445801,543.619934 824.668152,552.954041 819.902100,566.237305 
	C817.543701,572.810242 815.210571,579.392700 812.788086,585.942017 
	C809.835449,593.924744 807.473389,601.755615 818.433472,607.906616 
	C807.803528,607.906616 798.912903,607.906616 789.807983,607.906616 
	C790.128174,607.130554 790.181396,606.648132 790.375000,606.583069 
	C803.002747,602.337708 808.217590,591.966675 812.172180,580.459778 
	C814.173279,574.637268 816.438538,568.903870 818.652588,563.156433 
	C823.949890,549.405640 833.679688,540.370117 847.542114,535.393066 
	C859.653748,531.044678 872.518982,529.754517 884.692688,525.692078 
	C891.965820,523.265015 892.217102,523.152466 889.624451,516.009521 
	C881.792053,494.429962 873.950989,472.853546 866.080811,451.287750 
	C865.538574,449.802094 865.253723,448.041840 863.011597,447.252930 
	C852.633057,475.705475 842.272278,504.109344 831.911499,532.513184 
	C831.217285,532.255554 830.523071,531.997925 829.828857,531.740295 
	C842.944702,495.815552 856.060547,459.890778 869.176392,423.966003 
	C869.904907,423.928101 870.633484,423.890228 871.362061,423.852325 
	C882.374512,454.095825 893.386963,484.339325 904.580933,515.081360 
	C910.271545,512.439331 913.931335,508.574341 917.167725,504.511169 
	C929.724060,488.747437 934.394531,458.181854 923.874390,439.875854 
	C915.894714,425.990570 903.636414,418.432312 888.791077,414.760895 
	C871.910767,410.586243 855.108948,412.063232 838.785645,417.966339 
	C823.290649,423.569916 812.357727,434.584259 804.675110,448.732819 
	C791.567200,472.872589 778.982544,497.296051 765.998291,521.503906 
	C763.394775,526.357849 762.172607,531.197815 762.255981,536.724060 
	C762.492188,552.385620 762.373962,568.053589 762.291748,583.718445 
	C762.238770,593.818176 764.355652,602.670593 774.764160,607.959961 
	C761.550110,607.959961 748.336060,607.959961 735.111450,607.959961 
	C735.111450,607.574219 735.010620,607.078613 735.125793,607.021973 
	C744.705200,602.307434 747.010315,594.013733 746.936646,584.170776 
	C746.835938,570.713013 748.200256,557.258057 746.823669,543.785767 
	C746.544006,541.048767 745.914062,538.609680 744.653381,536.217712 
	C729.364258,507.207092 714.108276,478.178955 698.829224,449.162994 
	C693.086975,438.257904 685.403687,429.395721 673.347534,424.437866 
	C686.423218,424.437866 699.498901,424.437866 714.425964,424.437866 
	C705.204529,431.301971 708.583374,438.130157 711.907166,444.539948 
	C723.243774,466.402008 734.859802,488.119110 746.334412,509.909821 
	C750.034546,516.936523 753.627136,524.019836 757.910522,532.320740 
	C762.060974,524.481445 765.616699,517.824829 769.118591,511.140076 
	C781.397766,487.700256 793.087708,463.938171 806.297363,441.004181 
	C818.574707,419.688873 834.902649,403.016815 860.867432,400.209534 
	C883.363831,397.777252 904.196777,401.722015 919.336060,420.673615 
	C926.021423,429.042511 929.182739,439.049164 931.049133,449.510101 
	C932.996582,460.424927 932.670410,471.484528 930.231323,482.037659 
	C927.198669,495.158752 920.924683,507.054840 909.533203,515.226135 
	C906.338318,517.517822 905.881958,519.541931 907.306213,523.057922 
	C915.104309,542.307983 920.093262,562.663818 930.112610,581.039368 
	C931.541504,583.659912 933.277588,586.112976 935.088074,588.925232 
z"/>
<path fill="#ffffff" opacity="1.000000" stroke="none" 
	d="
M174.548462,572.476685 
	C184.758148,588.234375 196.818314,601.476807 215.535782,605.806274 
	C223.681961,607.690491 232.097412,607.164490 240.553833,604.583923 
	C259.341248,598.850952 272.047150,585.439209 283.411499,570.933289 
	C298.201965,552.054077 315.813965,538.739136 339.991241,535.105042 
	C347.061798,534.042236 353.961273,532.137939 360.712280,529.652771 
	C363.921112,528.471558 364.809967,526.905579 363.626740,523.742859 
	C357.112396,506.330353 352.458466,488.274658 345.388733,471.047974 
	C343.495605,466.435089 342.056885,461.637573 340.286041,456.971680 
	C339.660645,455.323761 339.552155,453.307739 337.066223,452.004761 
	C326.740326,480.382263 316.448364,508.666534 306.156403,536.950806 
	C305.447083,536.685425 304.737732,536.420044 304.028412,536.154663 
	C317.048340,500.467133 330.068268,464.779633 343.088226,429.092102 
	C343.844360,429.031952 344.600494,428.971832 345.356628,428.911682 
	C356.346832,459.195709 367.337036,489.479736 378.463562,520.139343 
	C386.715759,515.129822 391.563721,507.651794 396.679260,499.653625 
	C398.075806,502.499603 396.637146,503.918884 395.810913,505.328644 
	C392.315826,511.292358 387.625305,516.240540 382.264160,520.540283 
	C380.359863,522.067566 379.452454,523.570007 380.390442,526.074036 
	C386.574646,542.583435 392.411377,559.229187 398.925293,575.606201 
	C402.109650,583.612122 406.282288,591.194946 412.097534,597.844543 
	C419.604523,606.428589 428.757843,611.409973 440.036560,612.637512 
	C440.956512,612.737610 442.090546,612.335876 442.854187,613.917175 
	C434.874451,615.300720 427.320557,613.619995 419.800415,611.953552 
	C401.556549,607.910828 391.734711,595.142151 384.527222,578.950684 
	C377.953705,564.183289 373.143280,548.798584 367.193878,533.825989 
	C366.385376,531.791199 365.845551,530.107483 363.029083,531.214172 
	C351.688538,535.670044 339.622955,537.450378 327.907990,540.527954 
	C315.100555,543.892517 305.528442,551.099792 299.580994,563.033997 
	C294.412964,573.404358 287.735687,582.635071 279.253082,590.627136 
	C269.279510,600.023865 257.115143,604.710327 244.042374,607.023499 
	C220.550308,611.180298 198.197510,608.180542 178.420120,593.850342 
	C153.425354,575.739746 140.190140,551.169922 138.594589,520.220520 
	C137.291748,494.948792 144.483124,472.600159 160.820419,453.341888 
	C173.693726,438.166992 190.275925,429.049805 209.798798,425.759338 
	C222.985413,423.536835 236.173813,423.970459 249.300003,427.464752 
	C258.986938,430.043457 269.121735,429.481689 279.077545,429.535126 
	C283.598480,429.559418 285.473663,430.942871 285.319763,435.479431 
	C285.136047,440.894318 285.276459,446.320190 285.276459,451.466400 
	C282.079620,452.599304 281.273651,450.452576 280.062561,449.297913 
	C270.424438,440.108643 259.933075,432.395538 246.695068,429.147339 
	C229.521317,424.933533 213.283295,427.283112 198.357910,436.658295 
	C176.935104,450.114685 166.328171,470.828491 161.509460,494.754883 
	C156.012512,522.049072 160.514343,547.948486 174.548462,572.476685 
z"/>
<path fill="#ffffff" opacity="1.000000" stroke="none" 
	d="
M640.787109,606.563721 
	C622.448486,610.915894 604.629456,611.356201 587.391479,603.367310 
	C561.732788,591.475891 545.431824,571.325562 538.344055,544.392639 
	C528.774597,508.028900 535.109924,474.800507 561.619202,446.847534 
	C589.784119,417.148651 637.380005,415.104980 668.911804,443.117523 
	C686.477295,458.722565 695.935669,478.533356 699.318787,501.497864 
	C702.142822,520.667664 700.069519,539.296753 692.446716,557.143860 
	C682.341125,580.803711 665.282837,597.346680 640.787109,606.563721 
M554.347168,507.719177 
	C554.357605,514.033875 554.507385,520.309387 555.288940,526.619629 
	C557.996460,548.481262 564.498779,568.787720 578.712158,586.043762 
	C586.221863,595.161072 595.086609,603.341003 606.481445,606.354980 
	C622.759766,610.660706 637.574036,607.031677 649.460876,593.829041 
	C671.564392,569.278992 681.947510,540.601990 680.849426,507.694122 
	C680.008728,482.503387 672.371460,459.906189 653.998108,442.017853 
	C645.351257,433.599213 635.203857,426.783661 622.773193,425.541595 
	C601.819519,423.447845 585.260315,431.247955 573.077332,448.680878 
	C560.839050,466.192932 556.109985,485.967377 554.347168,507.719177 
z"/>
<path fill="#ffffff" opacity="1.000000" stroke="none" 
	d="
M483.023193,504.796875 
	C476.202057,489.943024 467.717102,475.947327 464.287506,460.101471 
	C461.236511,446.004944 468.536499,427.462708 490.351288,427.521576 
	C506.667236,427.565643 522.937744,428.840637 539.243469,428.624512 
	C544.046814,428.560852 548.841248,427.966949 553.646118,427.790344 
	C555.153198,427.734985 557.019592,427.096161 558.261230,429.268066 
	C554.831543,431.622070 550.527283,431.880157 547.202332,434.491150 
	C538.551086,441.284668 532.765564,450.219757 528.347778,459.931305 
	C518.014343,482.647003 508.213715,505.604675 498.142517,528.440186 
	C487.538177,552.484680 476.888428,576.509338 466.187683,600.511047 
	C465.490479,602.074890 465.195740,604.128784 462.392548,604.966125 
	C459.267761,598.188965 455.987183,591.396057 452.975159,584.486023 
	C439.481110,553.528503 426.098877,522.522217 412.600647,491.566559 
	C407.280975,479.366882 401.982605,467.149506 396.278198,455.128265 
	C390.026611,441.953888 382.482300,430.004303 365.190948,429.518616 
	C369.827393,426.426544 374.645691,428.878052 379.202271,428.434174 
	C384.135345,427.953613 389.171783,428.585175 394.164185,428.646881 
	C398.995087,428.706604 403.827393,428.675812 408.658905,428.652924 
	C413.654633,428.629242 418.709839,428.072540 423.628387,428.665985 
	C428.232697,429.221558 433.010010,426.172333 438.952026,429.401123 
	C433.877991,430.726196 430.076385,430.760437 426.515961,432.033600 
	C421.454041,433.843658 419.001678,437.128571 419.105927,442.524933 
	C419.227020,448.793762 420.840546,454.684509 423.268127,460.385529 
	C435.644714,489.451141 447.908173,518.566345 460.529449,547.525513 
	C464.181671,555.905396 467.997345,564.212769 471.381531,572.709045 
	C471.921814,574.065491 472.443542,575.460327 474.064087,576.633423 
	C479.673065,563.720032 485.211609,550.941895 490.772064,538.173279 
	C499.332520,518.515808 507.868500,498.846069 516.447876,479.198608 
	C521.468384,467.701202 525.787781,455.499908 519.689575,442.671448 
	C515.929016,434.760712 509.325897,431.148132 501.040344,430.490753 
	C496.423706,430.124390 491.708740,430.430023 487.080963,430.876862 
	C472.622345,432.272949 463.839172,444.900757 466.864929,459.239471 
	C468.749115,468.168427 473.179871,476.002655 476.740967,484.224762 
	C479.186615,489.871490 481.481293,495.584930 483.752563,501.304657 
	C484.219330,502.480072 485.802856,503.996521 483.023193,504.796875 
z"/>
</svg>