<?xml version="1.0" encoding="UTF-8"?>
<svg version="1.1" xmlns="http://www.w3.org/2000/svg" width="2048" height="2048">
<path d="M0 0 C0 0.66 0 1.32 0 2 C0.680625 2.165 1.36125 2.33 2.0625 2.5 C6.43956029 4.73509462 8.96326421 8.20408026 12 12 C12.7425 12.8971875 12.7425 12.8971875 13.5 13.8125 C28.56028573 32.80155591 36.80525702 57.61179643 42 81 C42.23074219 81.94101562 42.46148438 82.88203125 42.69921875 83.8515625 C48.44423105 108.86885012 43.1001768 136.91560048 29.625 158.5 C28.42069745 160.33598364 27.21247379 162.16940232 26 164 C25.50113281 164.80050781 25.00226563 165.60101562 24.48828125 166.42578125 C20.85253813 172.0213456 16.56085879 176.72008252 11.875 181.4375 C11.27679443 182.04118408 10.67858887 182.64486816 10.06225586 183.2668457 C6.91526175 186.3631312 3.94372338 188.92396449 0 191 C6.66877588 209.98846186 13.5768719 228.92702314 21.04882812 247.61523438 C21.73508172 249.33580038 22.41533295 251.05876469 23.09179688 252.78320312 C30.3725858 271.28197964 38.38860466 289.2338473 52 304 C52.69351562 304.78503906 53.38703125 305.57007813 54.1015625 306.37890625 C66.77735545 319.99962195 84.22233222 326.16163991 102 330 C103.15625 334.71875 103.15625 334.71875 101.75 337.25 C97.38760264 340.02607104 93.08384117 339.86259889 88 340 C86.72769531 340.03996094 85.45539063 340.07992188 84.14453125 340.12109375 C60.34560255 340.63240447 41.0224556 332.37995387 23 317 C22.22785156 316.37351562 21.45570313 315.74703125 20.66015625 315.1015625 C-6.66081851 292.21732723 -24.01854101 243.94437697 -35 211 C-39.73181425 211.58099491 -44.06993945 212.55003903 -48.625 213.9375 C-54.69362893 215.68179953 -60.52511021 216.38624636 -66.8125 216.8125 C-88.98458453 218.4905311 -118.80857933 225.49869569 -135 242 C-137.85542738 245.54348217 -140.45282229 249.23038158 -143 253 C-143.80824219 254.19302734 -143.80824219 254.19302734 -144.6328125 255.41015625 C-149.14911084 262.49199579 -152.1465485 270.14117901 -155 278 C-155.40605469 279.10859375 -155.81210938 280.2171875 -156.23046875 281.359375 C-161.2269024 296.15026163 -161.7122865 312.29098716 -155.1875 326.6875 C-154.70667969 327.61949219 -154.22585938 328.55148437 -153.73046875 329.51171875 C-153 332 -153 332 -154.15490723 334.12416077 C-156 336 -156 336 -158.20080566 336.50120544 C-159.05557495 336.50137161 -159.91034424 336.50153778 -160.79101562 336.50170898 C-162.24767639 336.51578041 -162.24767639 336.51578041 -163.73376465 336.53013611 C-164.78068481 336.51890213 -165.82760498 336.50766815 -166.90625 336.49609375 C-167.98249634 336.49754898 -169.05874268 336.49900421 -170.16760254 336.50050354 C-172.44395656 336.49884292 -174.72032162 336.48726353 -176.99658203 336.46655273 C-180.48648636 336.43761206 -183.97487125 336.44593821 -187.46484375 336.45898438 C-189.67448657 336.4527468 -191.88412458 336.44435572 -194.09375 336.43359375 C-195.14067017 336.43652939 -196.18759033 336.43946503 -197.26623535 336.44248962 C-198.23734253 336.42980545 -199.20844971 336.41712128 -200.20898438 336.40405273 C-201.06375366 336.39864975 -201.91852295 336.39324677 -202.79919434 336.38768005 C-205.4861213 335.91436794 -206.36958465 335.15276243 -208 333 C-208.51953125 330.546875 -208.51953125 330.546875 -208 328 C-205.69921875 326.015625 -205.69921875 326.015625 -202.6875 324.25 C-201.70136719 323.65703125 -200.71523437 323.0640625 -199.69921875 322.453125 C-197 321 -197 321 -194 320 C-192.62150897 318.71340837 -191.29470975 317.37086915 -190 316 C-185 311 -185 311 -183.0078125 309.078125 C-181.95207031 308.04945313 -181.95207031 308.04945313 -180.875 307 C-180.21242188 306.360625 -179.54984375 305.72125 -178.8671875 305.0625 C-175.02467782 300.81805416 -173.39789253 296.51693712 -171.8125 291.0625 C-166.82083717 274.51386207 -160.86416094 258.40501749 -153 243 C-152.5565625 242.09507812 -152.113125 241.19015625 -151.65625 240.2578125 C-141.60172636 221.55885085 -122.87202052 208.58988839 -103.01171875 202.23046875 C-102.27475266 201.98855301 -101.53778656 201.74663727 -100.77848816 201.49739075 C-99.21779213 200.98541166 -97.65625517 200.47598965 -96.09393311 199.96899414 C-92.04363072 198.65365004 -88.00035154 197.31709382 -83.95703125 195.98046875 C-83.17005859 195.72063202 -82.38308594 195.46079529 -81.57226562 195.19308472 C-69.55887436 191.21372815 -57.70546353 186.81211755 -46 182 C-48.22356476 173.19779177 -51.05213923 164.6341147 -53.95584106 156.03982544 C-55.30543927 152.04227022 -56.64237351 148.04047971 -57.98046875 144.0390625 C-58.24319077 143.25400833 -58.50591278 142.46895416 -58.77659607 141.66011047 C-68.51610002 112.53778084 -68.51610002 112.53778084 -71 100 C-73.45039437 102.21235606 -74.75238195 104.2607429 -76.125 107.25 C-78.25413553 111.64809488 -80.64290883 115.83277893 -83.1875 120 C-86.5847497 125.57956529 -89.84209149 131.2189928 -93 136.9375 C-93.42216797 137.70191406 -93.84433594 138.46632813 -94.27929688 139.25390625 C-95.12099729 140.77956906 -95.96231152 142.30544499 -96.80322266 143.83154297 C-102.34218026 153.86765506 -108.02623985 163.82089889 -113.74551392 173.75512695 C-114.72586098 175.45806859 -115.70510754 177.16164362 -116.68432617 178.86523438 C-119.3271337 183.44623933 -121.97493924 188.00908339 -124.8125 192.47265625 C-126.54817605 195.21331016 -128.00394371 197.93323717 -129.25 200.9375 C-130.91445428 204.91445428 -130.91445428 204.91445428 -132 206 C-134.4375 206.1875 -134.4375 206.1875 -137 206 C-137.66 205.34 -138.32 204.68 -139 204 C-138.63969965 198.44007111 -136.99417511 193.42941026 -135.1875 188.1875 C-134.91615234 187.38707275 -134.64480469 186.58664551 -134.36523438 185.76196289 C-132.73226027 180.99055606 -130.9771597 176.29629943 -129.046875 171.63671875 C-127.40228976 167.49457308 -125.95995125 163.28155982 -124.48999023 159.07519531 C-122.39622145 153.09447631 -120.23827667 147.13882781 -118.0625 141.1875 C-115.52731351 134.24774103 -113.04318027 127.29384833 -110.625 120.3125 C-107.85820708 112.3339349 -104.94794627 104.41328627 -102 96.5 C-98.13492723 86.12269357 -94.39894235 75.7102291 -90.77929688 65.24511719 C-89.29713741 60.97508634 -87.78540411 56.71547976 -86.27514648 52.45532227 C-84.89113872 48.54511961 -83.52515519 44.62933401 -82.17578125 40.70703125 C-81.86576172 39.80984375 -81.55574219 38.91265625 -81.23632812 37.98828125 C-80.63658026 36.25116799 -80.04003596 34.51294413 -79.44726562 32.7734375 C-77.9177643 28.35328612 -76.39505462 24.0404635 -74 20 C-70.52209635 18.71468778 -68.81202034 18.6713251 -65.375 20.0625 C-60.69055588 23.8840202 -58.48138878 28.84261694 -56.5 34.4375 C-54.52517279 39.91931377 -52.47665809 45.36324535 -50.33203125 50.78125 C-44.37042687 65.86089494 -38.824589 81.00424505 -33.8293457 96.43334961 C-31.20135928 104.53261576 -28.36692576 112.51413351 -25.32763672 120.46728516 C-23.7959317 124.54300631 -22.41918997 128.65537504 -21.06640625 132.79296875 C-19.73561829 136.79508198 -18.34147765 140.77306945 -16.9375 144.75 C-16.69193359 145.44730225 -16.44636719 146.14460449 -16.19335938 146.86303711 C-14.51819471 151.59717371 -12.77480141 156.30230605 -11 161 C6.33292117 146.98614884 24.91328771 124.78157564 28 102 C28.57580846 80.94844267 20.65683118 62.97725099 6.79296875 47.54296875 C-3.19379782 37.03992346 -14.87939231 29.93409302 -28 24 C-28.99 23.54882812 -29.98 23.09765625 -31 22.6328125 C-53.48743029 13.20448886 -78.42810219 10.63147822 -102.296875 15.30859375 C-106 16 -106 16 -110 16 C-110 16.66 -110 17.32 -110 18 C-111.11375 18.0825 -112.2275 18.165 -113.375 18.25 C-118.64361707 18.91090426 -123.1796334 20.85246488 -128 23 C-128.680625 23.27585937 -129.36125 23.55171875 -130.0625 23.8359375 C-136.40710755 26.62449485 -141.0096236 31.29388555 -146 36 C-147.49214072 37.36282186 -148.9914211 38.71789706 -150.5 40.0625 C-151.44359375 40.91521484 -151.44359375 40.91521484 -152.40625 41.78515625 C-154 43 -154 43 -156 43 C-156.34804687 43.82757812 -156.34804687 43.82757812 -156.703125 44.671875 C-158.34821135 47.62510231 -160.43162951 49.79112221 -162.75 52.25 C-170.21703368 60.33393377 -175.23350561 68.07461217 -180 78 C-180.90217267 79.77646362 -181.80449275 81.55285563 -182.71044922 83.32739258 C-194.08898318 105.71768616 -204.16599087 128.89456213 -214 152 C-214.68319091 153.58519742 -215.37003755 155.16883067 -216.0625 156.75 C-216.38347656 157.48734375 -216.70445312 158.2246875 -217.03515625 158.984375 C-218 161 -218 161 -220 164 C-220.2475 164.969375 -220.495 165.93875 -220.75 166.9375 C-221.9913932 171.67094237 -224.37563007 175.8318708 -226.66015625 180.1328125 C-228.07630217 182.84931788 -228.07630217 182.84931788 -228.44213867 185.39697266 C-229.02612977 188.12192369 -229.94068308 190.07318682 -231.265625 192.515625 C-234.30351671 198.41219466 -236.53920587 204.50469268 -238.75 210.75 C-239.34748047 212.39548828 -239.34748047 212.39548828 -239.95703125 214.07421875 C-242.74773344 221.87872488 -244.14226056 228.73295618 -244.20874023 237.04980469 C-244.21852402 237.83441071 -244.2283078 238.61901672 -244.23838806 239.42739868 C-244.26815843 242.00887396 -244.28967496 244.59029821 -244.30859375 247.171875 C-244.31845149 248.50190426 -244.31845149 248.50190426 -244.32850838 249.8588028 C-244.36102 254.55168565 -244.38549188 259.24454657 -244.4050293 263.9375 C-244.42283588 267.80567626 -244.45765743 271.67312268 -244.50756836 275.54101562 C-244.56797688 280.22942357 -244.59853202 284.91715561 -244.60820198 289.60593414 C-244.61672056 291.38404474 -244.63544913 293.162139 -244.6649456 294.94002533 C-244.96429582 309.03896636 -244.96429582 309.03896636 -238 321 C-234.94977976 323.16232953 -234.94977976 323.16232953 -231.6875 324.25 C-228.51171875 325.453125 -228.51171875 325.453125 -226 327 C-225.01953125 330.046875 -225.01953125 330.046875 -225 333 C-231.21261029 339.21261029 -251.86814801 336.12602352 -260.16461182 336.13812256 C-262.64164342 336.13718142 -265.11867492 336.13457932 -267.59570312 336.13037109 C-271.41540368 336.12494258 -275.2349902 336.13038022 -279.0546875 336.13671875 C-281.48177109 336.13605911 -283.90885462 336.13478033 -286.3359375 336.1328125 C-287.47847992 336.13483673 -288.62102234 336.13686096 -289.79818726 336.13894653 C-290.84753448 336.13579437 -291.89688171 336.13264221 -292.97802734 336.12939453 C-293.90239594 336.12859894 -294.82676453 336.12780334 -295.77914429 336.12698364 C-298 336 -298 336 -300 335 C-300.5625 332.4375 -300.5625 332.4375 -300 329 C-297.97898343 327.07522231 -295.79534097 325.54159167 -293.5234375 323.921875 C-287.60922309 319.41755071 -282.90092792 313.85449409 -280 307 C-279.62006398 303.42990246 -279.62006398 303.42990246 -279.78515625 299.5546875 C-279.79797134 298.82547089 -279.81078644 298.09625427 -279.82398987 297.34494019 C-279.85378375 295.74768451 -279.89055183 294.15054738 -279.93341064 292.55358887 C-280.00241962 289.90721184 -280.04841224 287.26121107 -280.08935547 284.61425781 C-280.16696982 279.7783837 -280.26554226 274.94322182 -280.37231445 270.10791016 C-280.43726389 267.13580456 -280.49709825 264.16362449 -280.55664062 261.19140625 C-280.75072057 251.95266538 -281.00628127 242.72160466 -281.47265625 233.4921875 C-281.50975204 232.73374542 -281.54684784 231.97530334 -281.58506775 231.19387817 C-281.99363078 223.70989716 -282.52893892 218.2466882 -287 212 C-288.39930777 209.43814815 -289.66402394 206.81375168 -290.9375 204.1875 C-294.28828452 197.38871733 -297.78653974 190.7398037 -301.6484375 184.21484375 C-305.10430375 178.36703514 -308.29126887 172.48236813 -311.27734375 166.3828125 C-313.36908699 162.27521693 -315.61495744 158.26671973 -317.875 154.25 C-321.0915592 148.52687529 -324.17293334 142.77003673 -327.0625 136.875 C-330.76211104 129.3342781 -334.84461886 122.04392758 -339.00537109 114.75 C-343.63962817 106.59625559 -347.96814348 98.27727797 -352.32568359 89.97387695 C-354.98548898 84.91042159 -357.68681238 79.87377723 -360.4453125 74.86328125 C-362.0789106 71.85466967 -363.67313666 68.82731619 -365.26293945 65.79541016 C-366.80538053 62.86313701 -368.36718518 59.94137894 -369.93017578 57.02001953 C-370.88879063 55.2099832 -371.81934016 53.38514836 -372.74609375 51.55859375 C-378.09606251 41.51296895 -385.56270893 35.03441471 -396.1171875 30.81640625 C-398.79496583 29.6552949 -400.36436695 28.41789233 -402 26 C-402.25 22.75 -402.25 22.75 -402 20 C-398.52018706 18.84006235 -395.40912668 18.8599735 -391.79052734 18.87060547 C-390.69500298 18.86797699 -390.69500298 18.86797699 -389.5773468 18.86529541 C-387.16351953 18.86089428 -384.74976551 18.86380816 -382.3359375 18.8671875 C-380.66110215 18.86651411 -378.9862669 18.86554379 -377.31143188 18.86428833 C-373.80266387 18.86281384 -370.29392131 18.8649585 -366.78515625 18.86962891 C-362.27776763 18.87533485 -357.77043844 18.87204016 -353.26305199 18.86605644 C-349.80593412 18.86245163 -346.34883047 18.86358889 -342.89171219 18.86618423 C-341.22905088 18.86685327 -339.5663883 18.86602589 -337.90372849 18.86370468 C-335.58601179 18.86117851 -333.26839295 18.8650178 -330.95068359 18.87060547 C-329.91118813 18.86756912 -329.91118813 18.86756912 -328.85069275 18.86447144 C-324.11426463 18.88573537 -324.11426463 18.88573537 -323 20 C-322.4375 22.25 -322.4375 22.25 -323 25 C-324.92555112 26.50008766 -326.90276888 27.63982998 -329.0546875 28.7890625 C-331.29831629 29.99980546 -331.29831629 29.99980546 -333 33 C-334.13389113 40.83979415 -330.82804696 46.01239224 -327 52.6875 C-326.40566162 53.75242676 -325.81132324 54.81735352 -325.19897461 55.91455078 C-320.99356751 63.40187838 -316.60902515 70.75418372 -312 78 C-309.96541425 81.31315057 -307.97973831 84.65383639 -306 88 C-305.65727051 88.57202148 -305.31454102 89.14404297 -304.96142578 89.73339844 C-295.78700846 105.0775625 -287.54909485 120.91949743 -279.23901367 136.7409668 C-276.88833714 141.21478055 -274.53019524 145.68461875 -272.16796875 150.15234375 C-271.80287201 150.84397614 -271.43777527 151.53560852 -271.06161499 152.24819946 C-268.44006373 157.2028443 -265.74749532 162.11216955 -262.99609375 166.99609375 C-262 169 -262 169 -262 171 C-255.57023715 165.07517499 -255.57023715 165.07517499 -251.16015625 157.73828125 C-249.65008039 154.17409548 -247.42719342 151.26668891 -245.125 148.1875 C-241.9627177 143.87621225 -239.18725484 139.75123936 -236.9921875 134.859375 C-235.28229483 131.65500921 -232.87208711 128.97428874 -230.59375 126.16015625 C-228.50172187 123.32463773 -227.37688032 120.23267553 -226 117 C-224.58127334 115.21931081 -223.06400646 113.55771229 -221.53515625 111.87109375 C-219.38549926 109.25102836 -217.92929206 106.38428622 -216.35546875 103.39453125 C-214.85716718 100.74767573 -213.15794822 98.33823455 -211.375 95.875 C-208.61555979 92.02741452 -206.63857273 88.43378503 -205 84 C-204.34 84 -203.68 84 -203 84 C-203 83.34 -203 82.68 -203 82 C-202.42894531 81.44570313 -201.85789062 80.89140625 -201.26953125 80.3203125 C-198.49076136 77.47936704 -196.64815382 74.29617149 -194.6875 70.875 C-191.55112297 65.5142927 -188.28344669 60.35669771 -184.60546875 55.34375 C-182.94084349 52.91364014 -181.51339402 50.38983183 -180.0690918 47.82470703 C-174.54891264 38.40296257 -167.53283375 29.85864836 -160 22 C-159.25492188 21.19175781 -158.50984375 20.38351562 -157.7421875 19.55078125 C-148.01897257 9.33017413 -136.58810821 1.30337863 -124 -5 C-122.71029297 -5.71542969 -122.71029297 -5.71542969 -121.39453125 -6.4453125 C-108.5565442 -13.36225334 -93.54670475 -18.56200197 -79 -20 C-78.01773437 -20.11988281 -77.03546875 -20.23976563 -76.0234375 -20.36328125 C-49.14080725 -23.13159181 -21.48502453 -16.8936082 0 0 Z " fill="#ED5C9C" transform="translate(1657,866)"/>
<path d="M0 0 C11.59430057 1.06320702 22.99052666 1.56433675 34.64483643 1.26095581 C40.21565747 1.14014068 44.80737822 1.24708423 50.03106689 3.28439331 C55.24566242 8.49898883 53.1607148 21.55007746 53.16778564 28.51486206 C53.16391846 29.80005737 53.16005127 31.08525269 53.15606689 32.40939331 C53.15993408 33.702323 53.16380127 34.99525269 53.16778564 36.32736206 C53.14817082 55.60873743 53.14817082 55.60873743 50.03106689 60.28439331 C44.55823883 60.14757261 42.10893293 57.92824276 38.30059814 54.38204956 C34.06187329 50.46432968 29.52327311 46.90477876 25.03106689 43.28439331 C24.39813721 42.74814331 23.76520752 42.21189331 23.11309814 41.65939331 C2.3559903 24.79710703 -26.98367263 20.14175808 -52.96893311 22.28439331 C-72.65265067 24.64045577 -89.55433304 34.94093624 -103.74237061 48.36642456 C-105.96893311 50.28439331 -105.96893311 50.28439331 -108.13299561 51.29611206 C-110.50951238 52.57538599 -110.82925892 53.87644356 -111.96893311 56.28439331 C-113.28284266 57.63719237 -114.64279816 58.94591658 -116.03143311 60.22189331 C-127.09126207 71.03278722 -134.87241485 85.20947335 -140.96893311 99.28439331 C-141.58574951 100.54896362 -141.58574951 100.54896362 -142.21502686 101.83908081 C-145.37627248 108.63428169 -147.1199177 115.55808695 -148.71893311 122.84689331 C-148.92969482 123.80434448 -149.14045654 124.76179565 -149.35760498 125.7482605 C-151.83084572 137.59143459 -152.21874252 149.23182363 -151.96893311 161.28439331 C-151.95217529 162.45615112 -151.93541748 163.62790894 -151.91815186 164.83517456 C-150.73782728 195.15265428 -137.75305808 223.11840531 -119.96893311 247.28439331 C-119.28444092 248.25892456 -119.28444092 248.25892456 -118.58612061 249.25314331 C-114.31253156 255.21174747 -109.33440836 260.53675358 -104.30780029 265.8576355 C-103.12975008 267.11301942 -101.97332042 268.38861829 -100.82049561 269.66720581 C-91.18117935 279.9713025 -78.32208755 287.65671775 -65.96893311 294.28439331 C-65.09237061 294.75619019 -64.21580811 295.22798706 -63.31268311 295.71408081 C-47.85522354 303.39734748 -28.96346101 304.62902834 -12.46502686 299.50704956 C-10.19916146 298.56260119 -8.10517085 297.49365646 -5.96893311 296.28439331 C-4.73143311 295.59410034 -4.73143311 295.59410034 -3.46893311 294.88986206 C10.67821845 286.43858402 21.71777263 274.97230612 32.03106689 262.28439331 C32.50109131 261.70963257 32.97111572 261.13487183 33.4553833 260.54269409 C39.10152754 253.60268352 44.39169543 246.43654809 49.59356689 239.15939331 C60.24189425 224.27319259 60.24189425 224.27319259 66.03106689 218.28439331 C66.69106689 218.28439331 67.35106689 218.28439331 68.03106689 218.28439331 C68.38684814 217.41234253 68.38684814 217.41234253 68.74981689 216.52267456 C71.30513048 212.05866637 75.9798655 209.33140172 80.03106689 206.28439331 C80.79677002 205.69271362 81.56247314 205.10103394 82.35137939 204.49142456 C93.12249864 196.51349386 104.77914543 191.17611284 117.76934814 188.08126831 C120.37844656 187.44383588 122.73815568 186.7242863 125.21856689 185.72189331 C129.26663195 184.10960188 133.41163839 183.11516288 137.64434814 182.10079956 C140.68400248 181.36805705 143.70785378 180.58658187 146.73321533 179.79743958 C153.14160775 178.14140955 159.52836359 176.77106936 166.05059814 175.65939331 C166.82391479 175.52533081 167.59723145 175.39126831 168.39398193 175.25314331 C170.2725946 174.92781727 172.15177197 174.60575475 174.03106689 174.28439331 C172.27198278 168.86218904 170.51209721 163.44024573 168.75152588 158.01852417 C168.15496103 156.18102745 167.55860059 154.34346436 166.96246338 152.50582886 C164.12975593 143.77422853 161.29504673 135.04445939 158.37091064 126.34298706 C155.65813604 118.23782001 153.18350695 110.06528804 150.71856689 101.88204956 C150.21583252 100.2288269 150.21583252 100.2288269 149.70294189 98.54220581 C149.40484619 97.55365601 149.10675049 96.5651062 148.79962158 95.54660034 C148.23681581 93.34278836 148.23681581 93.34278836 147.03106689 92.28439331 C146.61445801 93.10302856 146.19784912 93.92166382 145.76861572 94.7651062 C136.89714465 112.16379682 127.81957649 129.3786961 118.03106689 146.28439331 C117.02956111 148.02255721 116.0282563 149.76083692 115.02716064 151.49923706 C112.7577771 155.43380031 110.47867935 159.36259262 108.19317627 163.28781128 C107.16308002 165.05758589 106.13591944 166.82906849 105.10919189 168.60079956 C100.4975431 176.54425885 95.76876792 184.41576971 91.03106689 192.28439331 C90.48966064 193.21380737 89.94825439 194.14322144 89.39044189 195.10079956 C88.03106689 197.28439331 88.03106689 197.28439331 86.03106689 199.28439331 C80.46288508 198.71621149 80.46288508 198.71621149 79.03106689 197.28439331 C79.65992148 186.80348351 82.98080784 176.26550936 87.04278564 166.63595581 C88.88502686 162.25244114 90.43864776 157.76340499 92.03106689 153.28439331 C92.25069092 152.67063843 92.47031494 152.05688354 92.69659424 151.42453003 C97.56763272 137.78760104 102.13455801 124.05042117 106.67950439 110.30221558 C109.30629167 102.36904725 112.00425413 94.47140255 114.8381958 86.60910034 C116.82903536 81.06033793 118.73942139 75.4841229 120.65606689 69.90939331 C121.07920166 68.68421997 121.50233643 67.45904663 121.93829346 66.19674683 C124.04436068 60.09523492 126.13564068 53.98934197 128.18875122 47.86978149 C129.14846443 45.01152363 130.11457275 42.15544411 131.08105469 39.29946899 C131.54001961 37.9373008 131.99590126 36.574089 132.44836426 35.20974731 C140.00330147 12.43736188 140.00330147 12.43736188 146.03106689 6.28439331 C148.71856689 6.03439331 148.71856689 6.03439331 151.03106689 6.28439331 C154.72580594 14.05361385 157.8193532 21.91634676 160.65606689 30.03439331 C161.3052967 31.87040187 161.95453013 33.70640915 162.60392761 35.5423584 C163.51627493 38.1254504 164.42416965 40.71009797 165.33203125 43.29476929 C167.45431243 49.33529334 169.58420326 55.37312885 171.71856689 61.40939331 C171.95112183 62.0675705 172.18367676 62.72574768 172.42327881 63.40386963 C175.64113685 72.50093931 178.99718836 81.52812095 182.55059814 90.49923706 C184.42180501 95.23794527 186.11015592 100.03868929 187.80450439 104.84298706 C189.07250431 108.4006556 190.38794047 111.93718457 191.71856689 115.47189331 C194.62492865 123.19713932 197.52267825 130.92553915 200.40606689 138.65939331 C200.85941406 139.86748657 201.31276123 141.07557983 201.77984619 142.32028198 C202.2004834 143.4505481 202.62112061 144.58081421 203.05450439 145.74533081 C203.43526123 146.76417358 203.81601807 147.78301636 204.20831299 148.83273315 C205.03106689 151.28439331 205.03106689 151.28439331 205.03106689 153.28439331 C209.9419234 150.24967833 213.91010179 146.75225219 217.96856689 142.65939331 C218.58248291 142.04563843 219.19639893 141.43188354 219.82891846 140.79953003 C224.03297009 136.51398722 227.61074195 132.08707918 230.79669189 126.97970581 C231.20403564 126.42025269 231.61137939 125.86079956 232.03106689 125.28439331 C232.69106689 125.28439331 233.35106689 125.28439331 234.03106689 125.28439331 C234.25794189 124.74814331 234.48481689 124.21189331 234.71856689 123.65939331 C236.46488745 120.49938468 238.67135179 118.01669501 241.03106689 115.28439331 C242.35106689 115.61439331 243.67106689 115.94439331 245.03106689 116.28439331 C246.10062358 132.86252191 235.18310012 145.23706368 225.03106689 157.28439331 C224.36977783 158.13646362 223.70848877 158.98853394 223.02716064 159.86642456 C220.06757077 163.45152462 216.56145119 166.28356666 213.03106689 169.28439331 C215.16856169 177.10323966 218.04041198 184.49637627 221.15606689 191.97189331 C222.14178815 194.36196353 223.12613954 196.75259912 224.10919189 199.14376831 C224.59968018 200.33679565 225.09016846 201.529823 225.59552002 202.75900269 C227.75363438 208.05886177 229.83445635 213.38775063 231.90606689 218.72189331 C236.30728833 230.06908694 236.30728833 230.06908694 241.03106689 241.28439331 C241.30209229 241.90411011 241.57311768 242.5238269 241.85235596 243.162323 C248.45289477 258.12212025 256.40856257 271.80068096 267.03106689 284.28439331 C267.51059814 284.93150269 267.99012939 285.57861206 268.48419189 286.24533081 C273.99140461 293.34673669 281.73871999 298.00118269 289.10626221 302.97335815 C290.64982513 304.0247195 292.16900878 305.11183483 293.67950439 306.21017456 C301.55202204 311.87311941 310.75345916 314.75413665 320.03106689 317.28439331 C321.03106689 318.28439331 321.03106689 318.28439331 321.21856689 320.72189331 C321.03106689 323.28439331 321.03106689 323.28439331 319.03106689 325.28439331 C297.6528096 330.87972898 274.65325223 323.82531029 255.93731689 313.59298706 C249.27795203 309.56182659 243.63687694 304.65863805 238.03106689 299.28439331 C237.41618408 298.721073 236.80130127 298.15775269 236.16778564 297.57736206 C227.87897588 289.74586594 221.69053558 280.10476715 216.03106689 270.28439331 C215.07278502 268.74269465 214.11445032 267.20102884 213.15606689 265.65939331 C209.01894074 258.75340929 205.55620527 251.51456156 202.03106689 244.28439331 C201.71369568 243.63716812 201.39632446 242.98994293 201.06933594 242.32310486 C195.95253535 231.85100589 191.51160149 221.22503991 187.44610596 210.30368042 C186.51117411 207.7934832 185.56483196 205.28779338 184.61700439 202.78244019 C184.01479221 201.18047072 183.41320436 199.57826639 182.81231689 197.97579956 C182.53118042 197.23012222 182.25004395 196.48444489 181.96038818 195.71617126 C180.03106689 190.51701384 180.03106689 190.51701384 180.03106689 188.28439331 C179.06169189 188.59376831 178.09231689 188.90314331 177.09356689 189.22189331 C174.32726803 190.02405437 171.7556479 190.43804549 168.88653564 190.64767456 C163.71379112 191.18997416 159.13975416 192.73750654 154.28106689 194.53439331 C152.96682739 195.00909058 152.96682739 195.00909058 151.6260376 195.49337769 C149.09047444 196.41344955 146.56046726 197.34753972 144.03106689 198.28439331 C142.82321533 198.72267456 141.61536377 199.16095581 140.37091064 199.61251831 C125.22358877 205.24349299 110.54057576 211.94291025 98.03106689 222.28439331 C97.27696533 222.86833862 96.52286377 223.45228394 95.74591064 224.05392456 C90.07674565 228.67288404 86.47385713 233.86983411 82.85528564 240.13595581 C81.03309318 243.28089613 79.04860971 246.26185726 77.03106689 249.28439331 C75.78156936 251.31394661 74.55443112 253.35609655 73.32794189 255.39962769 C56.13528427 283.97995078 34.5438288 306.26912613 1.35919189 315.54611206 C-15.44777835 319.27441884 -33.16783709 319.47898892 -50.32611084 319.52462769 C-52.5348984 319.53440866 -54.74278009 319.56565256 -56.95135498 319.59689331 C-66.96094758 319.67098402 -76.21166679 318.47160779 -85.96893311 316.28439331 C-86.92114746 316.08023804 -87.87336182 315.87608276 -88.85443115 315.66574097 C-114.39368277 310.02986705 -138.47708924 299.25038702 -156.96893311 280.28439331 C-158.11362061 279.20158081 -158.11362061 279.20158081 -159.28143311 278.09689331 C-160.96893311 276.28439331 -160.96893311 276.28439331 -160.96893311 274.28439331 C-161.95893311 273.95439331 -162.94893311 273.62439331 -163.96893311 273.28439331 C-164.30226644 271.95105998 -164.63559977 270.61772664 -164.96893311 269.28439331 C-165.95893311 268.95439331 -166.94893311 268.62439331 -167.96893311 268.28439331 C-169.26824951 266.94015503 -169.26824951 266.94015503 -170.57049561 265.21408081 C-171.0563916 264.57220825 -171.5422876 263.93033569 -172.04290771 263.26901245 C-172.55474609 262.57283813 -173.06658447 261.87666382 -173.59393311 261.15939331 C-174.12446289 260.44452759 -174.65499268 259.72966187 -175.20159912 258.99313354 C-180.28857721 252.03269038 -184.70767205 244.770155 -188.96893311 237.28439331 C-189.46006592 236.45423706 -189.95119873 235.62408081 -190.45721436 234.76876831 C-195.45651491 226.16316116 -198.88944701 217.0853805 -201.59393311 207.53439331 C-201.78793701 206.85707153 -201.98194092 206.17974976 -202.18182373 205.48190308 C-205.91354917 191.75516216 -207.49545403 178.66078557 -207.34393311 164.47189331 C-207.33894806 163.68280579 -207.33396301 162.89371826 -207.3288269 162.08071899 C-207.1450312 137.22839792 -202.2389959 114.61907504 -190.96893311 92.28439331 C-190.49455811 91.23122925 -190.02018311 90.17806519 -189.53143311 89.09298706 C-174.91435676 57.55664483 -149.29241268 30.90403869 -117.87957764 16.19381714 C-115.8600838 15.23258349 -113.86835126 14.22476206 -111.87518311 13.21017456 C-78.09812937 -3.71514648 -36.67942573 -3.37395702 0 0 Z " fill="#ED5B9C" transform="translate(553.9689331054688,887.7156066894531)"/>
<path d="M0 0 C0.8844278 0.00097183 1.76885559 0.00194366 2.68008423 0.00294495 C15.91692228 0.03831757 29.1528135 0.2347626 42.38818359 0.4230957 C45.48255905 0.46700601 48.57695152 0.50862212 51.67138672 0.5480957 C61.83516165 0.67819088 71.99773667 0.83909687 82.16015625 1.05078125 C83.3769104 1.07537415 84.59366455 1.09996704 85.84729004 1.12530518 C89.08001234 1.19858661 92.31114694 1.29325269 95.54296875 1.3984375 C96.46318817 1.41877548 97.38340759 1.43911346 98.33151245 1.46006775 C103.08316907 1.64455134 106.25190768 2.04748969 110.16015625 5.05078125 C109.67867477 10.46744792 109.67867477 10.46744792 107.66015625 12.73828125 C105.42642652 13.91098936 103.4981127 14.58365025 101.09765625 15.30078125 C86.27146796 20.04903763 71.63708147 33.62695584 64.46484375 47.27734375 C62.57798908 51.15041717 60.85589084 55.09101678 59.16015625 59.05078125 C58.710354 60.09854736 58.710354 60.09854736 58.25146484 61.16748047 C56.24534792 65.86185773 54.276807 70.57157816 52.31396484 75.28417969 C46.42705975 89.39979724 40.48816772 103.48388501 34.15698242 117.40673828 C32.20797984 121.69781959 30.31975038 126.00029625 28.53515625 130.36328125 C26.54546514 135.21947649 24.3487461 139.95605462 22.10375977 144.69897461 C18.38692294 152.60906379 14.95686964 160.64518766 11.4921875 168.66796875 C7.54564741 177.78909251 3.421398 186.81358358 -0.80953979 195.80584717 C-2.4784463 199.35374043 -4.14341302 202.90348192 -5.80859375 206.453125 C-6.14664536 207.17365051 -6.48469696 207.89417603 -6.83299255 208.63653564 C-14.99476018 226.03725354 -23.0968597 243.45883821 -30.83984375 261.05078125 C-34.24442123 268.76174393 -37.91901035 276.31015226 -41.71875 283.83203125 C-43.16514946 286.69671875 -44.58723184 289.57179746 -45.9921875 292.45703125 C-46.51945435 293.53271362 -46.51945435 293.53271362 -47.05737305 294.63012695 C-47.72637245 295.99612596 -48.39089033 297.36433261 -49.05004883 298.73510742 C-50.93546709 302.56481689 -52.91500638 305.92665637 -55.83984375 309.05078125 C-58.77734375 309.67578125 -58.77734375 309.67578125 -61.83984375 309.05078125 C-65.61983836 305.78010588 -67.7674762 302.72845998 -69.75 298.16796875 C-70.25893799 297.01401611 -70.76787598 295.86006348 -71.29223633 294.67114258 C-71.82910138 293.4227587 -72.36579969 292.17430311 -72.90234375 290.92578125 C-73.469789 289.62929387 -74.03841142 288.33332113 -74.6081543 287.0378418 C-75.78143767 284.36631931 -76.94871449 281.69229573 -78.11132812 279.01611328 C-80.75124828 272.94721866 -83.4567588 266.90761211 -86.15234375 260.86328125 C-87.14762597 258.62261367 -88.14243284 256.38173487 -89.13671875 254.140625 C-90.74922341 250.50688275 -92.363014 246.87372906 -93.98046875 243.2421875 C-99.64181726 230.53000264 -105.24738266 217.79340506 -110.83984375 205.05078125 C-111.11844238 204.41603882 -111.39704102 203.78129639 -111.68408203 203.12731934 C-120.74097375 182.49025438 -129.75162517 161.83606486 -138.47021484 141.05322266 C-140.68801366 135.77075086 -142.92524899 130.49681869 -145.171875 125.2265625 C-151.18956065 111.10383521 -157.14489885 96.97147157 -162.79003906 82.69482422 C-175.633175 44.9325704 -175.633175 44.9325704 -204.69921875 20.203125 C-209.4899857 18.44531872 -214.39231845 17.27640084 -219.359375 16.140625 C-223.11404843 14.96491918 -225.75669898 13.48190144 -228.83984375 11.05078125 C-229.40234375 8.48828125 -229.40234375 8.48828125 -228.83984375 6.05078125 C-227.16159766 3.77452207 -226.1899343 3.12304273 -223.39527893 2.54620361 C-210.9135829 1.86597694 -198.42714864 1.86713994 -185.9296875 1.84765625 C-184.70208773 1.84482887 -183.47448795 1.8420015 -182.20968819 1.83908844 C-175.73297033 1.82419065 -169.25627428 1.81489765 -162.77954102 1.81054688 C-156.76034015 1.80557735 -150.74133737 1.78684474 -144.72219557 1.76088595 C-138.90334226 1.73666873 -133.08455673 1.72894321 -127.26565742 1.727211 C-124.79966685 1.72418431 -122.33367713 1.71615525 -119.86771965 1.70302582 C-116.43110426 1.68601033 -112.99498979 1.68783297 -109.55834961 1.69433594 C-108.54168716 1.68512115 -107.52502472 1.67590637 -106.47755432 1.66641235 C-101.44747172 1.6962951 -97.92913302 1.74885499 -93.83984375 5.05078125 C-94.15234375 7.92578125 -94.15234375 7.92578125 -94.83984375 11.05078125 C-97.91519485 13.10101532 -99.90137207 13.64310659 -103.46484375 14.42578125 C-112.97596739 16.65843915 -112.97596739 16.65843915 -120.83984375 22.11328125 C-126.05975449 32.22685832 -122.05411984 44.82639103 -118.83984375 55.05078125 C-117.02779822 60.45706322 -114.9555684 65.7575076 -112.83984375 71.05078125 C-112.33709741 72.32155835 -111.83449147 73.592391 -111.33203125 74.86328125 C-110.33534369 77.37459427 -109.32926143 79.88188498 -108.31640625 82.38671875 C-107.38408913 84.70024641 -106.46095713 87.01751619 -105.55078125 89.33984375 C-101.85471231 98.74212438 -97.86930436 108.0119567 -93.87231445 117.28979492 C-86.58891234 134.22100344 -79.5555073 151.2582292 -72.49951172 168.28515625 C-67.22703149 180.98446348 -61.74385142 193.58028485 -56.08984375 206.11328125 C-55.22275878 208.0360216 -54.35607369 209.95893708 -53.49066162 211.88243103 C-52.71646632 213.60314743 -51.94080167 215.32320252 -51.16503906 217.04321289 C-47.83984375 224.58983799 -47.83984375 224.58983799 -47.83984375 228.05078125 C-47.17984375 228.05078125 -46.51984375 228.05078125 -45.83984375 228.05078125 C-45.56293701 227.17099609 -45.28603027 226.29121094 -45.00073242 225.38476562 C-43.93939344 222.33668042 -42.72058466 219.58291337 -41.265625 216.70703125 C-40.76579102 215.71469482 -40.26595703 214.7223584 -39.75097656 213.69995117 C-39.22342773 212.6607251 -38.69587891 211.62149902 -38.15234375 210.55078125 C-37.61577148 209.47868408 -37.07919922 208.40658691 -36.52636719 207.30200195 C-34.24379686 202.74890018 -31.95473717 198.20879837 -29.4921875 193.75 C-28.55052734 192.01169922 -28.55052734 192.01169922 -27.58984375 190.23828125 C-27.0484375 189.28308594 -26.50703125 188.32789063 -25.94921875 187.34375 C-22.71344903 177.73898284 -25.54088474 167.0651035 -27.33984375 157.36328125 C-27.53808243 156.27904877 -27.53808243 156.27904877 -27.74032593 155.1729126 C-30.23927047 141.6725601 -33.9240964 128.88265328 -38.83984375 116.05078125 C-39.39575195 114.59406006 -39.39575195 114.59406006 -39.96289062 113.10791016 C-41.83560001 108.23166303 -43.74238492 103.36966181 -45.671875 98.515625 C-64.78966095 50.41253599 -64.78966095 50.41253599 -58.33984375 30.05078125 C-53.10350906 18.1768392 -44.04458708 7.83600735 -31.83984375 3.05078125 C-21.67953165 -0.33598945 -10.61507669 -0.01988795 0 0 Z M-31.83984375 25.05078125 C-32.49984375 25.6953125 -33.15984375 26.33984375 -33.83984375 27.00390625 C-40.8834499 34.45838942 -42.42450401 41.00565329 -42.1953125 51.19921875 C-41.56515393 58.02709077 -39.84952914 64.50337683 -37.83984375 71.05078125 C-37.58009766 71.92637695 -37.32035156 72.80197266 -37.05273438 73.70410156 C-34.44047719 82.06722343 -30.75991649 89.74946862 -26.83984375 97.55078125 C-22.92447912 105.34272432 -19.25754681 113.03061174 -16.67016602 121.38623047 C-15.79710228 124.18794101 -14.79995414 126.92555607 -13.77734375 129.67578125 C-11.10983391 137.58341912 -10.04702593 145.81999366 -8.83984375 154.05078125 C-5.97016595 150.57184877 -4.09712446 146.71168261 -2.15234375 142.67578125 C0.45412555 137.35645615 3.17739934 132.16912151 6.16015625 127.05078125 C9.36143912 121.54058091 12.2742587 115.94681769 15.08544922 110.22924805 C17.55462421 105.2191968 20.14626674 100.28574 22.78515625 95.36328125 C30.19316744 81.43533529 35.24242316 69.94868008 35.47265625 53.98828125 C35.49948486 52.72939087 35.49948486 52.72939087 35.52685547 51.44506836 C35.51247612 40.96149304 32.1198175 33.76756046 25.16015625 26.05078125 C24.64710938 25.47070312 24.1340625 24.890625 23.60546875 24.29296875 C16.76719352 17.52273606 5.09215361 14.99458942 -4.33984375 14.80078125 C-15.23278758 14.9793541 -23.97100542 17.36636881 -31.83984375 25.05078125 Z " fill="#ED5B9C" transform="translate(961.83984375,888.94921875)"/>
<path d="M0 0 C2.15666366 1.59013898 4.29602408 3.2017948 6.4375 4.8125 C7.73806058 5.70474882 9.03884062 6.59667785 10.33984375 7.48828125 C11.36207031 8.25527344 12.38429688 9.02226563 13.4375 9.8125 C13.4375 10.4725 13.4375 11.1325 13.4375 11.8125 C14.03175781 12.09222656 14.62601563 12.37195313 15.23828125 12.66015625 C22.99076651 16.72229329 28.16726536 24.0541991 33.4375 30.8125 C34.19417969 31.76511719 34.95085937 32.71773437 35.73046875 33.69921875 C62.89361462 68.71676824 74.12046741 113.371986 69.22265625 157.14453125 C65.24395843 187.89864686 52.63092127 216.51703004 33.4375 240.8125 C32.75300781 241.70453125 32.06851562 242.5965625 31.36328125 243.515625 C30.64527344 244.43859375 29.92726563 245.3615625 29.1875 246.3125 C28.52234375 247.1684375 27.8571875 248.024375 27.171875 248.90625 C26.59953125 249.5353125 26.0271875 250.164375 25.4375 250.8125 C24.7775 250.8125 24.1175 250.8125 23.4375 250.8125 C23.22738281 251.35519531 23.01726562 251.89789062 22.80078125 252.45703125 C20.92922498 255.69069437 18.36042179 258.00883364 15.625 260.5 C15.0467749 261.02819336 14.4685498 261.55638672 13.87280273 262.10058594 C-13.53737294 286.6483418 -52.12596742 300.63242282 -88.90283203 299.01220703 C-101.24999381 298.08509318 -113.30683674 294.91623201 -124.5625 289.8125 C-125.33174805 289.46944824 -126.10099609 289.12639648 -126.89355469 288.77294922 C-143.82373942 281.17722731 -159.33006616 273.00060408 -172.5625 259.8125 C-173.40167969 258.97976563 -174.24085937 258.14703125 -175.10546875 257.2890625 C-207.0179758 225.12287892 -223.88495917 181.24985717 -223.74365234 136.16210938 C-223.42567798 116.05853602 -219.79965869 95.59937085 -212.5625 76.8125 C-212.33369141 76.19665039 -212.10488281 75.58080078 -211.86914062 74.94628906 C-197.73164695 37.13121922 -169.37554044 4.18169178 -132.70605469 -13.24169922 C-122.81992375 -17.60375745 -112.10196583 -20.00125589 -101.5625 -22.1875 C-100.46699829 -22.44128418 -100.46699829 -22.44128418 -99.34936523 -22.70019531 C-66.35872253 -29.99015253 -27.13438891 -19.51912466 0 0 Z M-102.5625 -6.1875 C-103.89469081 -5.91110153 -105.22794115 -5.63972844 -106.5625 -5.375 C-115.24886965 -3.13624494 -122.75869685 1.68114805 -129.8125 7.0625 C-130.38572998 7.49884766 -130.95895996 7.93519531 -131.54956055 8.38476562 C-132.93042896 9.47471301 -134.25279864 10.63799362 -135.5625 11.8125 C-135.5625 12.4725 -135.5625 13.1325 -135.5625 13.8125 C-136.42101563 14.15474609 -136.42101563 14.15474609 -137.296875 14.50390625 C-142.11048108 17.28417873 -145.20815386 22.4761249 -148.5625 26.8125 C-149.6453125 28.20855469 -149.6453125 28.20855469 -150.75 29.6328125 C-176.76388501 64.21945507 -181.38633158 112.233253 -175.53125 153.78125 C-171.99122209 176.74754677 -164.54939389 198.36210507 -153.5625 218.8125 C-153.07265625 219.76898437 -152.5828125 220.72546875 -152.078125 221.7109375 C-145.71017213 233.910218 -138.01668233 244.82518709 -128.5625 254.8125 C-127.41142396 256.16221306 -126.26532989 257.5161957 -125.125 258.875 C-115.37274478 270.02043453 -102.77588895 281.34139755 -87.52416992 283.1784668 C-84.38129522 283.3111311 -81.2698845 283.31006865 -78.125 283.25 C-76.56168945 283.26063477 -76.56168945 283.26063477 -74.96679688 283.27148438 C-64.55388097 283.18756131 -54.88306185 281.05950947 -45.625 276.25 C-44.95533203 275.90775391 -44.28566406 275.56550781 -43.59570312 275.21289062 C-16.98394932 261.11244477 1.36755297 234.16589308 10.125 205.875 C24.03062573 159.06394408 30.92232682 100.54401315 9.4375 54.8125 C9.02886719 53.91660156 8.62023438 53.02070312 8.19921875 52.09765625 C-3.59526695 27.69379311 -25.58110667 4.51597359 -51.54150391 -4.55419922 C-68.45851465 -9.8553258 -85.48243266 -11.3767113 -102.5625 -6.1875 Z " fill="#ED5B9C" transform="translate(1241.5625,906.1875)"/>
<path d="M0 0 C7.92 0 15.84 0 24 0 C23.67 0.66 23.34 1.32 23 2 C23.66 2.66 24.32 3.32 25 4 C24 5 24 5 22.05053711 5.11352539 C21.2178833 5.10828857 20.38522949 5.10305176 19.52734375 5.09765625 C18.62822266 5.09443359 17.72910156 5.09121094 16.80273438 5.08789062 C15.85720703 5.07951172 14.91167969 5.07113281 13.9375 5.0625 C12.98810547 5.05798828 12.03871094 5.05347656 11.06054688 5.04882812 C8.70696935 5.0370011 6.35351523 5.02052025 4 5 C4.33 3.68 4.66 2.36 5 1 C3.35 1 1.7 1 0 1 C0 0.67 0 0.34 0 0 Z " fill="#F46FA9" transform="translate(1150,882)"/>
<path d="M0 0 C0.82741699 0.01047363 1.65483398 0.02094727 2.50732422 0.03173828 C3.40322266 0.03818359 4.29912109 0.04462891 5.22216797 0.05126953 C6.62789062 0.07640625 6.62789062 0.07640625 8.06201172 0.10205078 C9.00689453 0.11107422 9.95177734 0.12009766 10.92529297 0.12939453 C13.26278464 0.15300556 15.59977295 0.18593562 17.93701172 0.22705078 C17.60701172 1.54705078 17.27701172 2.86705078 16.93701172 4.22705078 C10.00701172 4.22705078 3.07701172 4.22705078 -4.06298828 4.22705078 C-4.06298828 1.23437984 -2.90665666 0.31990422 0 0 Z " fill="#F7669D" transform="translate(1314.06298828125,884.77294921875)"/>
<path d="M0 0 C1.32 0.33 2.64 0.66 4 1 C3.67 4.3 3.34 7.6 3 11 C1.68 11.33 0.36 11.66 -1 12 C-3 9 -3 9 -2.75 5.4375 C-2 2 -2 2 0 0 Z " fill="#FA5F00" transform="translate(1725,392)"/>
<path d="M0 0 C0.33 0 0.66 0 1 0 C1.33 4.29 1.66 8.58 2 13 C0.68 12.67 -0.64 12.34 -2 12 C-2 13.32 -2 14.64 -2 16 C-2.66 16 -3.32 16 -4 16 C-4 12.7 -4 9.4 -4 6 C-3.34 6 -2.68 6 -2 6 C-1.34 4.02 -0.68 2.04 0 0 Z " fill="#F37889" transform="translate(1700,958)"/>
<path d="M0 0 C1.28197266 -0.03867188 1.28197266 -0.03867188 2.58984375 -0.078125 C5.0625 0.25 5.0625 0.25 9.0625 3.25 C3.4525 3.25 -2.1575 3.25 -7.9375 3.25 C-7.9375 2.59 -7.9375 1.93 -7.9375 1.25 C-5.04829306 0.28693102 -3.01502119 0.0544064 0 0 Z " fill="#F0A1C8" transform="translate(858.9375,1210.75)"/>
<path d="M0 0 C1.32 0.33 2.64 0.66 4 1 C4.625 3.875 4.625 3.875 5 7 C3 9 3 9 0.375 9.125 C-0.40875 9.08375 -1.1925 9.0425 -2 9 C-1.01 8.34 -0.02 7.68 1 7 C0.835 6.401875 0.67 5.80375 0.5 5.1875 C0 3 0 3 0 0 Z " fill="#F6869C" transform="translate(1427,1192)"/>
<path d="M0 0 C0.99 0.33 1.98 0.66 3 1 C2.25 5.75 2.25 5.75 0 8 C-0.99 7.67 -1.98 7.34 -3 7 C-2.625 4.0625 -2.625 4.0625 -2 1 C-1.34 0.67 -0.68 0.34 0 0 Z " fill="#F3778F" transform="translate(1437,1021)"/>
<path d="M0 0 C4.95 0 9.9 0 15 0 C14.67 0.99 14.34 1.98 14 3 C11.36 3 8.72 3 6 3 C6 2.67 6 2.34 6 2 C3.03 1.505 3.03 1.505 0 1 C0 0.67 0 0.34 0 0 Z " fill="#F4ACBC" transform="translate(1159,882)"/>
<path d="M0 0 C2.72426311 2.35277269 3.8141763 4.62496331 5 8 C3.02 8.99 3.02 8.99 1 10 C0 2.25 0 2.25 0 0 Z " fill="#F78188" transform="translate(1388,1024)"/>
<path d="M0 0 C0.33 0.99 0.66 1.98 1 3 C0 4 -1 5 -2 6 C-2.515625 6.556875 -3.03125 7.11375 -3.5625 7.6875 C-5 9 -5 9 -7 9 C-5.44499019 5.18315774 -2.96404505 2.80804268 0 0 Z " fill="#EA9F74" transform="translate(400,928)"/>
<path d="M0 0 C5.61 0.33 11.22 0.66 17 1 C17 1.33 17 1.66 17 2 C9.08 2.495 9.08 2.495 1 3 C0.67 2.01 0.34 1.02 0 0 Z " fill="#F8C5B8" transform="translate(1592,845)"/>
<path d="M0 0 C0.33 0.99 0.66 1.98 1 3 C-0.65 4.65 -2.3 6.3 -4 8 C-4.99 7.67 -5.98 7.34 -7 7 C-4.69 4.69 -2.38 2.38 0 0 Z " fill="#ED97A3" transform="translate(773,1029)"/>
<path d="M0 0 C1.32 0.66 2.64 1.32 4 2 C3.34 2.66 2.68 3.32 2 4 C2 4.66 2 5.32 2 6 C0 7.625 0 7.625 -2 9 C-2 7.35 -2 5.7 -2 4 C-1.34 4 -0.68 4 0 4 C0 2.68 0 1.36 0 0 Z " fill="#E35796" transform="translate(1698,970)"/>
<path d="M0 0 C0.33 0 0.66 0 1 0 C1 3.63 1 7.26 1 11 C0.34 10.67 -0.32 10.34 -1 10 C-1.40729228 7.67843403 -1.74438677 5.3431213 -2 3 C-1.34 3 -0.68 3 0 3 C0 2.01 0 1.02 0 0 Z " fill="#EB9598" transform="translate(606,908)"/>
<path d="M0 0 C0.99 0.33 1.98 0.66 3 1 C2.34 2.32 1.68 3.64 1 5 C-0.32 5 -1.64 5 -3 5 C-2.625 3.0625 -2.625 3.0625 -2 1 C-1.34 0.67 -0.68 0.34 0 0 Z " fill="#ED6E9E" transform="translate(1414,1080)"/>
<path d="M0 0 C0.66 0.66 1.32 1.32 2 2 C1.625 4.625 1.625 4.625 1 7 C0.01 6.67 -0.98 6.34 -2 6 C-1.125 1.125 -1.125 1.125 0 0 Z " fill="#F3749B" transform="translate(1351,955)"/>
<path d="M0 0 C0.99 0 1.98 0 3 0 C3 0.99 3 1.98 3 3 C2.34 3 1.68 3 1 3 C1 3.66 1 4.32 1 5 C-0.32 5.33 -1.64 5.66 -3 6 C-2.01 4.02 -1.02 2.04 0 0 Z " fill="#F27885" transform="translate(1150,893)"/>
<path d="M0 0 C0.99 0.33 1.98 0.66 3 1 C2.67 1.99 2.34 2.98 2 4 C-1.3 3.67 -4.6 3.34 -8 3 C-8 2.67 -8 2.34 -8 2 C-5.36 2 -2.72 2 0 2 C0 1.34 0 0.68 0 0 Z " fill="#F9868E" transform="translate(1605,878)"/>
<path d="M0 0 C-0.66 1.65 -1.32 3.3 -2 5 C-2.99 5 -3.98 5 -5 5 C-5 3.68 -5 2.36 -5 1 C-2 0 -2 0 0 0 Z " fill="#F47091" transform="translate(719,1064)"/>
<path d="M0 0 C2 1 2 1 3.1875 3.375 C4 6 4 6 3 9 C3 8.34 3 7.68 3 7 C2.01 6.67 1.02 6.34 0 6 C0 4.02 0 2.04 0 0 Z " fill="#F569A0" transform="translate(399,1058)"/>
<path d="M0 0 C1.98 0.495 1.98 0.495 4 1 C4 2.65 4 4.3 4 6 C3.01 5.67 2.02 5.34 1 5 C1 4.01 1 3.02 1 2 C0.01 2.495 0.01 2.495 -1 3 C-0.67 2.01 -0.34 1.02 0 0 Z " fill="#EC8186" transform="translate(795,1003)"/>
<path d="M0 0 C1.0625 1.875 1.0625 1.875 2 4 C1.67 4.66 1.34 5.32 1 6 C-0.32 6 -1.64 6 -3 6 C-2 4 -1 2 0 0 Z " fill="#F1679C" transform="translate(1066,989)"/>
</svg>
